<?xml version="1.0" encoding="utf-8"?>
<!-- Generator: Adobe Illustrator 15.1.0, SVG Export Plug-In . SVG Version: 6.00 Build 0)  -->
<!DOCTYPE svg PUBLIC "-//W3C//DTD SVG 1.1//EN" "http://www.w3.org/Graphics/SVG/1.1/DTD/svg11.dtd">
<svg version="1.1" id="Ebene_1" xmlns="http://www.w3.org/2000/svg" xmlns:xlink="http://www.w3.org/1999/xlink" x="0px" y="0px"
	 width="16px" height="16px" viewBox="0 0 16 16" enable-background="new 0 0 16 16" xml:space="preserve">
<rect fill="#599CC3" width="6.047" height="16"/>
<rect x="10.234" fill="#FFFFFF" width="5.766" height="16"/>
<g>
	<path fill="#FFFFFF" d="M0.625,10.148c0.44,0.23,1.144,0.461,1.859,0.461c0.77,0,1.177-0.318,1.177-0.803
		c0-0.462-0.352-0.727-1.243-1.034c-1.232-0.44-2.046-1.122-2.046-2.2c0-1.265,1.067-2.222,2.805-2.222
		c0.847,0,1.452,0.165,1.892,0.374L4.695,6.066C4.409,5.923,3.87,5.714,3.155,5.714c-0.726,0-1.078,0.341-1.078,0.715
		c0,0.473,0.407,0.682,1.375,1.045c1.309,0.484,1.915,1.166,1.915,2.211c0,1.243-0.946,2.299-2.981,2.299
		c-0.847,0-1.684-0.23-2.102-0.461L0.625,10.148z"/>
	<path fill="#599CC3" d="M9.203,4.46v7.415H7.531V4.46H9.203z"/>
	<path fill="#599CC3" d="M12.096,5.868h-2.002V4.46h5.699v1.408h-2.024v6.007h-1.673V5.868z"/>
</g>
</svg>
