<?xml version="1.0" encoding="utf-8"?>
<!-- Generator: Adobe Illustrator 15.1.0, SVG Export Plug-In . SVG Version: 6.00 Build 0)  -->
<!DOCTYPE svg PUBLIC "-//W3C//DTD SVG 1.1//EN" "http://www.w3.org/Graphics/SVG/1.1/DTD/svg11.dtd">
<svg version="1.1" id="Ebene_1" xmlns="http://www.w3.org/2000/svg" xmlns:xlink="http://www.w3.org/1999/xlink" x="0px" y="0px"
	 width="120px" height="32px" viewBox="0 0 120 32" enable-background="new 0 0 120 32" xml:space="preserve">
<rect x="82.17" fill="#FFFFFF" width="37.83" height="32"/>
<rect fill="#599CC3" width="88.5" height="32"/>
<g>
	<path fill="#FFFFFF" d="M3.931,18.412l4.249-0.328c0.255,1.133,0.774,1.965,1.556,2.496c0.782,0.531,1.837,0.797,3.165,0.797
		c1.406,0,2.466-0.236,3.179-0.709c0.713-0.473,1.07-1.025,1.07-1.658c0-0.406-0.15-0.752-0.45-1.037
		c-0.3-0.285-0.824-0.533-1.571-0.744c-0.512-0.141-1.677-0.39-3.497-0.75c-2.341-0.461-3.983-1.027-4.928-1.699
		c-1.328-0.945-1.992-2.098-1.992-3.457c0-0.875,0.312-1.693,0.937-2.455c0.625-0.762,1.524-1.342,2.7-1.74s2.594-0.598,4.256-0.598
		c2.714,0,4.758,0.473,6.13,1.418s2.092,2.207,2.161,3.785l-4.367,0.152c-0.187-0.883-0.588-1.518-1.203-1.904
		s-1.537-0.58-2.766-0.58c-1.269,0-2.262,0.207-2.98,0.621c-0.462,0.266-0.693,0.621-0.693,1.066c0,0.406,0.216,0.754,0.649,1.043
		c0.551,0.367,1.889,0.75,4.013,1.148c2.124,0.398,3.695,0.811,4.713,1.236s1.814,1.008,2.39,1.746
		c0.575,0.738,0.863,1.65,0.863,2.736c0,0.984-0.344,1.906-1.033,2.766s-1.662,1.498-2.921,1.916
		c-1.259,0.418-2.828,0.627-4.706,0.627c-2.735,0-4.834-0.502-6.3-1.506C5.091,21.797,4.216,20.334,3.931,18.412z"/>
	<path fill="#FFFFFF" d="M24.202,17.604c0-1.093,0.339-2.152,1.018-3.175c0.679-1.023,1.64-1.805,2.884-2.344
		s2.634-0.809,4.168-0.809c2.37,0,4.312,0.611,5.827,1.834s2.272,2.768,2.272,4.634c0,1.883-0.765,3.443-2.294,4.682
		s-3.455,1.857-5.776,1.857c-1.436,0-2.806-0.258-4.108-0.773c-1.304-0.516-2.294-1.271-2.973-2.268
		C24.541,20.246,24.202,19.033,24.202,17.604z M28.45,17.779c0,1.234,0.369,2.18,1.106,2.836c0.738,0.656,1.647,0.984,2.729,0.984
		s1.989-0.328,2.722-0.984c0.732-0.656,1.099-1.609,1.099-2.859c0-1.218-0.367-2.156-1.099-2.812
		c-0.733-0.656-1.64-0.984-2.722-0.984s-1.992,0.328-2.729,0.984C28.819,15.6,28.45,16.545,28.45,17.779z"/>
	<path fill="#FFFFFF" d="M43.617,24.002V6.823h4.146v17.179H43.617z"/>
	<path fill="#FFFFFF" d="M56.319,24.002l-6.314-12.445h4.353l2.95,6.351l0.856,2.121c0.226-0.539,0.369-0.895,0.428-1.066
		c0.138-0.352,0.285-0.703,0.443-1.055l2.98-6.351h4.264l-6.226,12.445H56.319z"/>
	<path fill="#FFFFFF" d="M77.888,20.041l4.131,0.551c-0.531,1.203-1.37,2.119-2.516,2.748c-1.146,0.629-2.58,0.943-4.301,0.943
		c-2.725,0-4.74-0.707-6.049-2.121c-1.032-1.133-1.549-2.562-1.549-4.289c0-2.062,0.679-3.677,2.036-4.845s3.073-1.752,5.148-1.752
		c2.331,0,4.17,0.611,5.518,1.834s1.992,3.096,1.933,5.619H71.854c0.029,0.977,0.363,1.736,1.003,2.279s1.436,0.814,2.39,0.814
		c0.649,0,1.195-0.141,1.638-0.422C77.327,21.119,77.661,20.666,77.888,20.041z M78.123,16.713
		c-0.029-0.953-0.339-1.678-0.929-2.174c-0.591-0.496-1.309-0.744-2.154-0.744c-0.905,0-1.652,0.262-2.242,0.785
		c-0.591,0.523-0.881,1.234-0.871,2.133H78.123z"/>
	<path fill="#599CC3" d="M93.909,24.002V6.823h4.367v17.179H93.909z"/>
	<path fill="#599CC3" d="M107.305,24.002V9.729h-6.417V6.823h17.188v2.906h-6.403v14.273H107.305z"/>
</g>
<g>
</g>
</svg>
